<svg width="57" height="56" viewBox="0 0 57 56" fill="none" xmlns="http://www.w3.org/2000/svg">
<path d="M19.129 23.8149C22.1785 23.8149 24.6506 21.3428 24.6506 18.2933C24.6506 15.2438 22.1785 12.7717 19.129 12.7717C16.0795 12.7717 13.6074 15.2438 13.6074 18.2933C13.6074 21.3428 16.0795 23.8149 19.129 23.8149Z" fill="#232124"/>
<path d="M51.2833 36.6172C54.3328 36.6172 56.8049 34.1451 56.8049 31.0956C56.8049 28.0461 54.3328 25.574 51.2833 25.574C48.2338 25.574 45.7617 28.0461 45.7617 31.0956C45.7617 34.1451 48.2338 36.6172 51.2833 36.6172Z" fill="#232124"/>
<path d="M45.3284 27.154C47.7556 27.154 49.7232 25.0531 49.7232 22.4614C49.7232 19.8698 47.7556 17.7689 45.3284 17.7689C42.9012 17.7689 40.9336 19.8698 40.9336 22.4614C40.9336 25.0531 42.9012 27.154 45.3284 27.154Z" fill="#232124"/>
<path d="M18.5333 40.1899C21.5828 40.1899 24.0549 37.7178 24.0549 34.6683C24.0549 31.6188 21.5828 29.1467 18.5333 29.1467C15.4838 29.1467 13.0117 31.6188 13.0117 34.6683C13.0117 37.7178 15.4838 40.1899 18.5333 40.1899Z" fill="#232124"/>
<path d="M6.3263 32.7467C9.3758 32.7467 11.8479 30.2746 11.8479 27.2251C11.8479 24.1756 9.3758 21.7035 6.3263 21.7035C3.2768 21.7035 0.804688 24.1756 0.804688 27.2251C0.804688 30.2746 3.2768 32.7467 6.3263 32.7467Z" fill="#232124"/>
<path d="M35.2062 42.4855C39.1947 42.4855 42.428 39.5854 42.428 36.008C42.428 32.4306 39.1947 29.5305 35.2062 29.5305C31.2177 29.5305 27.9844 32.4306 27.9844 36.008C27.9844 39.5854 31.2177 42.4855 35.2062 42.4855Z" fill="#232124"/>
<path d="M28.2091 29.2151C30.8702 29.2151 33.0275 26.9912 33.0275 24.2478C33.0275 21.5044 30.8702 19.2805 28.2091 19.2805C25.5479 19.2805 23.3906 21.5044 23.3906 24.2478C23.3906 26.9912 25.5479 29.2151 28.2091 29.2151Z" fill="#232124"/>
</svg>
