<svg width="56" height="56" viewBox="0 0 56 56" fill="none" xmlns="http://www.w3.org/2000/svg">
<path d="M23.102 15.807C25.1472 18.7387 20.0519 22.2794 16.2894 22.2794C14.892 22.2794 13.9504 20.8191 12.8728 20.1334C11.0491 18.9729 9.49509 18.0539 9.47678 15.807C9.44921 12.4253 12.0722 11.9653 16.2894 9.33457C19.3306 7.43742 21.949 14.1541 23.102 15.807Z" fill="#232124"/>
<path d="M41.744 21.5571C41.744 25.1323 40.8932 25.6954 37.1934 25.6954C35.4321 25.6954 33.5493 26.2529 32.3535 25.1788C31.0374 23.9968 32.4559 22.683 32.4559 20.8098C32.4559 19.0454 30.9445 17.0722 32.1291 15.9045C33.3449 14.7061 35.0392 13.9625 36.9132 13.9625C38.5002 13.9625 39.4912 15.9904 40.639 16.8816C42.1671 18.0681 41.744 19.5154 41.744 21.5571Z" fill="#232124"/>
<path d="M29.4373 28.5332C29.4373 32.1084 26.438 35.0068 22.7382 35.0068C21.0491 35.0068 20.9201 33.3422 19.7418 32.3454C18.339 31.1589 16.0391 30.4762 16.0391 28.5332C16.0391 26.819 18.496 26.6745 19.6216 25.5164C20.8436 24.259 20.8122 22.0596 22.7382 22.0596C24.3799 22.0596 25.5302 23.8675 26.6952 24.8148C28.1557 26.0023 29.4373 26.5444 29.4373 28.5332Z" fill="#232124"/>
<path d="M53.949 33.2434C54.3404 35.6302 52.3693 35.0402 51.7721 38.0195C51.4594 39.5796 48.9929 39.717 47.2499 39.717C45.3997 39.717 45.4922 37.9317 44.2799 36.7599C43.0679 35.5884 40.5508 35.0308 40.5508 33.2434C40.5508 31.2799 41.4554 29.5206 42.8839 28.3334C44.0564 27.3588 46.0493 25.6032 47.2499 26.7698C48.6958 28.1748 50.6581 29.169 51.9174 30.1698C53.2298 31.2129 53.8103 32.3976 53.949 33.2434Z" fill="#232124"/>
<path d="M14.3982 30.9687C14.8982 32.5378 12.6895 33.5229 11.6415 34.6654C10.4142 36.0033 9.69477 37.4423 7.69911 37.4423C6.04383 37.4423 5.12456 36.0281 3.95557 35.0668C2.51169 33.8794 1 32.9445 1 30.9687C1 28.6432 2.03068 28.0339 3.93602 26.8925C4.95991 26.2791 6.42589 24.2685 7.69911 24.4951C10.7254 25.0339 13.4903 28.1198 14.3982 30.9687Z" fill="#232124"/>
<path d="M38.8064 39.8754C38.8064 41.3316 37.2813 41.9283 36.4415 43.0098C35.2194 44.5835 34.3001 46.349 32.1073 46.349C29.8112 46.349 29.8399 45.0458 28.6329 43.3442C27.895 42.304 25.4082 41.2318 25.4082 39.8754C25.4082 37.6915 26.5273 35.7602 28.2415 34.5877C29.3337 33.8407 32.0686 34.8029 33.5085 34.8029C37.2083 34.8029 38.8064 36.3001 38.8064 39.8754Z" fill="#232124"/>
</svg>
