<svg width="56" height="56" viewBox="0 0 56 56" fill="none" xmlns="http://www.w3.org/2000/svg">
<path d="M55.9999 27.6022C55.9999 30.9205 48.1059 30.5526 41.4984 32.3907C37.0138 33.6383 38.3515 37.682 32.3655 38.2904C15.8129 39.9728 10.8788 32.8801 13.5509 32.2635C17.3789 31.3801 2.10742 29.7057 2.10742 27.6022C2.10742 22.0319 14.3021 19.4819 29.0537 17.5162C36.9941 16.4581 46.1666 15.3268 43.7014 19.1351C39.562 25.5295 55.9999 24.0535 55.9999 27.6022Z" fill="#232124"/>
<path d="M12.3441 41.7527C12.3441 42.8335 9.58077 43.7096 6.17205 43.7096C2.76332 43.7096 2.30863e-06 42.8335 0 41.7527C0 40.6718 2.76332 39.7957 6.17205 39.7957C9.58077 39.7957 12.3441 40.6718 12.3441 41.7527Z" fill="#232124"/>
<path d="M24.6887 14.3548C24.6887 15.1031 23.0711 15.7097 21.0758 15.7097C19.0804 15.7097 17.4629 15.1031 17.4629 14.3548C17.4629 13.6066 19.0804 13 21.0758 13C23.0711 13 24.6887 13.6066 24.6887 14.3548Z" fill="#232124"/>
</svg>
