<svg width="58" height="56" viewBox="0 0 58 56" fill="none" xmlns="http://www.w3.org/2000/svg">
<path d="M22.0601 21.4054C23.2197 22.5753 20.3306 23.9881 18.1971 23.9881C17.4047 23.9881 16.8708 23.4054 16.2598 23.1318C15.2257 22.6687 14.3445 22.302 14.3341 21.4054C14.3185 20.056 15.8058 19.8725 18.1971 18.8227C19.9215 18.0657 21.4063 20.7458 22.0601 21.4054Z" fill="#232124" stroke="#E2E0E4" stroke-linecap="round" stroke-linejoin="round"/>
<path d="M32.6309 23.6999C32.6309 25.1265 32.1485 25.3512 30.0505 25.3512C29.0518 25.3512 27.9842 25.5737 27.3062 25.1451C26.5599 24.6734 27.3642 24.1492 27.3642 23.4017C27.3642 22.6976 26.5072 21.9103 27.1789 21.4444C27.8683 20.9661 28.829 20.6694 29.8916 20.6694C30.7915 20.6694 31.3535 21.4786 32.0043 21.8342C32.8708 22.3077 32.6309 22.8852 32.6309 23.6999Z" fill="#232124" stroke="#E2E0E4" stroke-linecap="round" stroke-linejoin="round"/>
<path d="M25.6519 26.4836C25.6519 27.9102 23.9512 29.0667 21.8533 29.0667C20.8956 29.0667 20.8224 28.4025 20.1542 28.0048C19.3588 27.5313 18.0547 27.2589 18.0547 26.4836C18.0547 25.7996 19.4479 25.7419 20.0861 25.2798C20.779 24.778 20.7612 23.9004 21.8533 23.9004C22.7842 23.9004 23.4365 24.6218 24.0971 24.9998C24.9252 25.4737 25.6519 25.69 25.6519 26.4836Z" fill="#232124" stroke="#E2E0E4" stroke-linecap="round" stroke-linejoin="round"/>
<path d="M39.5523 28.3631C39.7743 29.3155 38.6566 29.0801 38.3179 30.2689C38.1406 30.8914 36.742 30.9462 35.7537 30.9462C34.7046 30.9462 34.757 30.2338 34.0696 29.7662C33.3824 29.2988 31.9551 29.0763 31.9551 28.3631C31.9551 27.5796 32.468 26.8775 33.278 26.4038C33.9429 26.0149 35.0729 25.3144 35.7537 25.7799C36.5736 26.3406 37.6863 26.7372 38.4003 27.1366C39.1445 27.5528 39.4736 28.0256 39.5523 28.3631Z" fill="#232124" stroke="#E2E0E4" stroke-linecap="round" stroke-linejoin="round"/>
<path d="M17.1246 27.4555C17.4081 28.0816 16.1557 28.4747 15.5614 28.9305C14.8655 29.4644 14.4576 30.0386 13.326 30.0386C12.3874 30.0386 11.8661 29.4743 11.2033 29.0907C10.3845 28.6169 9.52734 28.2438 9.52734 27.4555C9.52734 26.5275 10.1118 26.2844 11.1922 25.8289C11.7727 25.5842 12.604 24.7819 13.326 24.8723C15.042 25.0873 16.6098 26.3186 17.1246 27.4555Z" fill="#232124" stroke="#E2E0E4" stroke-linecap="round" stroke-linejoin="round"/>
<path d="M30.9644 31.0094C30.9644 31.5905 30.0996 31.8286 29.6234 32.2602C28.9304 32.8881 28.4092 33.5926 27.1658 33.5926C25.8638 33.5926 25.8801 33.0726 25.1957 32.3936C24.7773 31.9785 23.3672 31.5507 23.3672 31.0094C23.3672 30.138 24.0017 29.3673 24.9738 28.8995C25.5931 28.6014 27.1439 28.9854 27.9603 28.9854C30.0582 28.9854 30.9644 29.5828 30.9644 31.0094Z" fill="#232124" stroke="#E2E0E4" stroke-linecap="round" stroke-linejoin="round"/>
<path d="M26.7241 21.0409C27.8838 22.2108 24.9946 23.6236 22.8612 23.6236C22.0688 23.6236 21.5348 23.0409 20.9238 22.7673C19.8897 22.3042 19.0086 21.9375 18.9982 21.0409C18.9825 19.6915 20.4699 19.508 22.8612 18.4582C24.5856 17.7012 26.0703 20.3813 26.7241 21.0409Z" fill="#232124" stroke="#E2E0E4" stroke-linecap="round" stroke-linejoin="round"/>
<path d="M37.295 23.3354C37.295 24.762 36.8125 24.9867 34.7146 24.9867C33.7159 24.9867 32.6483 25.2092 31.9702 24.7806C31.224 24.3089 32.0283 23.7847 32.0283 23.0372C32.0283 22.3331 31.1713 21.5458 31.843 21.0798C32.5324 20.6016 33.4931 20.3049 34.5557 20.3049C35.4556 20.3049 36.0175 21.1141 36.6684 21.4697C37.5349 21.9432 37.295 22.5207 37.295 23.3354Z" fill="#232124" stroke="#E2E0E4" stroke-linecap="round" stroke-linejoin="round"/>
<path d="M30.316 26.119C30.316 27.5457 28.6153 28.7022 26.5174 28.7022C25.5596 28.7022 25.4865 28.038 24.8183 27.6403C24.0229 27.1668 22.7187 26.8944 22.7188 26.119C22.7188 25.4351 24.1119 25.3774 24.7501 24.9153C25.4431 24.4135 25.4253 23.5359 26.5174 23.5359C27.4483 23.5359 28.1005 24.2573 28.7611 24.6353C29.5893 25.1092 30.316 25.3255 30.316 26.119Z" fill="#232124" stroke="#E2E0E4" stroke-linecap="round" stroke-linejoin="round"/>
<path d="M44.2164 27.9986C44.4383 28.951 43.3207 28.7156 42.982 29.9044C42.8047 30.5269 41.4061 30.5817 40.4178 30.5817C39.3686 30.5817 39.4211 29.8693 38.7337 29.4017C38.0464 28.9343 36.6191 28.7118 36.6191 27.9986C36.6191 27.2151 37.1321 26.513 37.9421 26.0393C38.607 25.6504 39.737 24.9499 40.4178 25.4154C41.2377 25.9761 42.3503 26.3727 43.0644 26.7721C43.8086 27.1883 44.1377 27.6611 44.2164 27.9986Z" fill="#232124" stroke="#E2E0E4" stroke-linecap="round" stroke-linejoin="round"/>
<path d="M21.7886 27.091C22.0721 27.7171 20.8197 28.1102 20.2255 28.566C19.5296 29.0999 19.1216 29.6741 17.99 29.6741C17.0514 29.6741 16.5302 29.1098 15.8673 28.7262C15.0486 28.2524 14.1914 27.8793 14.1914 27.091C14.1914 26.163 14.7758 25.9199 15.8562 25.4644C16.4368 25.2197 17.2681 24.4174 17.99 24.5078C19.7061 24.7228 21.2738 25.9541 21.7886 27.091Z" fill="#232124" stroke="#E2E0E4" stroke-linecap="round" stroke-linejoin="round"/>
<path d="M35.6285 30.6449C35.6285 31.226 34.7637 31.4641 34.2875 31.8957C33.5945 32.5236 33.0733 33.2281 31.8299 33.2281C30.5279 33.2281 30.5442 32.7081 29.8597 32.0291C29.4413 31.614 28.0312 31.1862 28.0312 30.6449C28.0312 29.7735 28.6658 29.0028 29.6378 28.535C30.2571 28.2369 31.8079 28.6209 32.6244 28.6209C34.7223 28.6209 35.6285 29.2183 35.6285 30.6449Z" fill="#232124" stroke="#E2E0E4" stroke-linecap="round" stroke-linejoin="round"/>
<path d="M34.2866 19.7162C35.4463 20.886 32.5571 22.2989 30.4237 22.2989C29.6313 22.2989 29.0973 21.7162 28.4863 21.4426C27.4522 20.9795 26.5711 20.6128 26.5607 19.7162C26.545 18.3668 28.0324 18.1833 30.4237 17.1335C32.1481 16.3765 33.6328 19.0566 34.2866 19.7162Z" fill="#232124" stroke="#E2E0E4" stroke-linecap="round" stroke-linejoin="round"/>
<path d="M46.584 22.6183C46.584 24.045 46.1016 24.2697 44.0037 24.2697C43.0049 24.2697 41.9373 24.4921 41.2593 24.0635C40.513 23.5919 41.3174 23.0676 41.3174 22.3201C41.3174 21.6161 40.4603 20.8287 41.1321 20.3628C41.8215 19.8846 42.7822 19.5879 43.8448 19.5879C44.7446 19.5879 45.3066 20.3971 45.9574 20.7527C46.8239 21.2261 46.584 21.8036 46.584 22.6183Z" fill="#232124" stroke="#E2E0E4" stroke-linecap="round" stroke-linejoin="round"/>
<path d="M41.1617 22.7282C41.1617 24.1548 39.461 25.3113 37.3631 25.3113C36.4053 25.3113 36.3322 24.6471 35.664 24.2494C34.8686 23.7759 33.5645 23.5035 33.5645 22.7282C33.5645 22.0442 34.9576 21.9865 35.5958 21.5244C36.2888 21.0227 36.271 20.145 37.3631 20.145C38.294 20.145 38.9462 20.8665 39.6068 21.2444C40.435 21.7183 41.1617 21.9346 41.1617 22.7282Z" fill="#232124" stroke="#E2E0E4" stroke-linecap="round" stroke-linejoin="round"/>
<path d="M50.0504 25.5799C50.2723 26.5323 49.1546 26.2969 48.816 27.4857C48.6387 28.1082 47.2401 28.163 46.2517 28.163C45.2026 28.163 45.2551 27.4506 44.5677 26.983C43.8804 26.5156 42.4531 26.2931 42.4531 25.5799C42.4531 24.7964 42.9661 24.0943 43.7761 23.6206C44.4409 23.2317 45.571 22.5312 46.2517 22.9967C47.0716 23.5574 48.1843 23.954 48.8984 24.3534C49.6425 24.7696 49.9717 25.2424 50.0504 25.5799Z" fill="#232124" stroke="#E2E0E4" stroke-linecap="round" stroke-linejoin="round"/>
<path d="M35.0504 25.7663C35.3339 26.3924 34.0814 26.7855 33.4872 27.2413C32.7913 27.7752 32.3833 28.3494 31.2517 28.3494C30.3131 28.3494 29.7919 27.7851 29.129 27.4015C28.3103 26.9277 27.4531 26.5546 27.4531 25.7663C27.4531 24.8383 28.0376 24.5952 29.1179 24.1397C29.6985 23.895 30.5298 23.0927 31.2517 23.1831C32.9678 23.3981 34.5356 24.6294 35.0504 25.7663Z" fill="#232124" stroke="#E2E0E4" stroke-linecap="round" stroke-linejoin="round"/>
<path d="M39.5523 28.3632C39.5523 28.9443 38.6875 29.1824 38.2113 29.6139C37.5183 30.2419 36.9971 30.9464 35.7537 30.9464C34.4517 30.9464 34.468 30.4264 33.7836 29.7474C33.3652 29.3323 31.9551 28.9045 31.9551 28.3632C31.9551 27.4918 32.5896 26.7211 33.5617 26.2533C34.181 25.9552 35.7318 26.3391 36.5482 26.3391C38.6461 26.3391 39.5523 26.9366 39.5523 28.3632Z" fill="#232124" stroke="#E2E0E4" stroke-linecap="round" stroke-linejoin="round"/>
<path d="M41.2066 24.3793C42.3662 25.5491 39.4771 26.962 37.3436 26.962C36.5512 26.962 36.0173 26.3793 35.4063 26.1056C34.3721 25.6426 33.491 25.2758 33.4806 24.3793C33.465 23.0299 34.9523 22.8463 37.3436 21.7966C39.068 21.0396 40.5528 23.7197 41.2066 24.3793Z" fill="#232124" stroke="#E2E0E4" stroke-linecap="round" stroke-linejoin="round"/>
<path d="M53.504 27.2814C53.504 28.7081 53.0215 28.9327 50.9236 28.9327C49.9249 28.9327 48.8573 29.1552 48.1792 28.7266C47.4329 28.2549 48.2373 27.7307 48.2373 26.9832C48.2373 26.2792 47.3803 25.4918 48.052 25.0259C48.7414 24.5477 49.7021 24.251 50.7647 24.251C51.6646 24.251 52.2265 25.0601 52.8774 25.4158C53.7438 25.8892 53.504 26.4667 53.504 27.2814Z" fill="#232124" stroke="#E2E0E4" stroke-linecap="round" stroke-linejoin="round"/>
<path d="M48.0816 27.3913C48.0816 28.8179 46.3809 29.9744 44.283 29.9744C43.3252 29.9744 43.2521 29.3102 42.5839 28.9125C41.7885 28.439 40.4844 28.1666 40.4844 27.3913C40.4844 26.7073 41.8776 26.6496 42.5158 26.1875C43.2087 25.6857 43.1909 24.8081 44.283 24.8081C45.2139 24.8081 45.8662 25.5295 46.5268 25.9075C47.3549 26.3814 48.0816 26.5977 48.0816 27.3913Z" fill="#232124" stroke="#E2E0E4" stroke-linecap="round" stroke-linejoin="round"/>
<path d="M56.9703 30.2432C57.1922 31.1956 56.0746 30.9602 55.7359 32.149C55.5586 32.7715 54.16 32.8264 53.1717 32.8264C52.1225 32.8264 52.175 32.114 51.4876 31.6464C50.8003 31.1789 49.373 30.9564 49.373 30.2432C49.373 29.4597 49.886 28.7577 50.696 28.2839C51.3609 27.8951 52.4909 27.1945 53.1717 27.66C53.9916 28.2207 55.1042 28.6174 55.8183 29.0168C56.5625 29.433 56.8916 29.9057 56.9703 30.2432Z" fill="#232124" stroke="#E2E0E4" stroke-linecap="round" stroke-linejoin="round"/>
<path d="M41.9703 30.4293C42.2538 31.0554 41.0014 31.4485 40.4071 31.9044C39.7112 32.4383 39.3033 33.0125 38.1717 33.0125C37.2331 33.0125 36.7118 32.4482 36.049 32.0646C35.2302 31.5908 34.373 31.2177 34.373 30.4293C34.373 29.5014 34.9575 29.2583 36.0379 28.8028C36.6184 28.5581 37.4497 27.7557 38.1717 27.8462C39.8877 28.0612 41.4555 29.2925 41.9703 30.4293Z" fill="#232124" stroke="#E2E0E4" stroke-linecap="round" stroke-linejoin="round"/>
<path d="M46.4742 33.0263C46.4742 33.6074 45.6094 33.8455 45.1332 34.277C44.4402 34.905 43.919 35.6094 42.6756 35.6094C41.3736 35.6094 41.3899 35.0895 40.7055 34.4105C40.287 33.9954 38.877 33.5675 38.877 33.0263C38.877 32.1548 39.5115 31.3842 40.4836 30.9163C41.1028 30.6183 42.6536 31.0022 43.4701 31.0022C45.568 31.0022 46.4742 31.5996 46.4742 33.0263Z" fill="#232124" stroke="#E2E0E4" stroke-linecap="round" stroke-linejoin="round"/>
<path d="M13.5327 22.3776C14.6924 23.5474 11.8032 24.9602 9.66975 24.9602C8.87737 24.9602 8.34344 24.3775 7.73243 24.1039C6.69831 23.6409 5.81715 23.2741 5.80676 22.3776C5.79113 21.0282 7.27845 20.8446 9.66975 19.7949C11.3942 19.0379 12.8789 21.718 13.5327 22.3776Z" fill="#232124" stroke="#E2E0E4" stroke-linecap="round" stroke-linejoin="round"/>
<path d="M24.1036 24.672C24.1036 26.0987 23.6211 26.3234 21.5232 26.3234C20.5245 26.3234 19.4569 26.5458 18.7788 26.1172C18.0326 25.6456 18.8369 25.1213 18.8369 24.3739C18.8369 23.6698 17.9799 22.8825 18.6516 22.4165C19.341 21.9383 20.3017 21.6416 21.3643 21.6416C22.2642 21.6416 22.8261 22.4508 23.477 22.8064C24.3435 23.2798 24.1036 23.8573 24.1036 24.672Z" fill="#232124" stroke="#E2E0E4" stroke-linecap="round" stroke-linejoin="round"/>
<path d="M17.1246 27.4557C17.1246 28.8824 15.4239 30.0389 13.326 30.0389C12.3682 30.0389 12.2951 29.3747 11.6269 28.9769C10.8315 28.5034 9.52734 28.2311 9.52734 27.4557C9.52734 26.7717 10.9205 26.7141 11.5587 26.2519C12.2517 25.7502 12.2339 24.8726 13.326 24.8726C14.2569 24.8726 14.9091 25.594 15.5697 25.972C16.3979 26.4458 17.1246 26.6621 17.1246 27.4557Z" fill="#232124" stroke="#E2E0E4" stroke-linecap="round" stroke-linejoin="round"/>
<path d="M31.025 29.3352C31.2469 30.2876 30.1292 30.0522 29.7906 31.241C29.6133 31.8636 28.2147 31.9184 27.2263 31.9184C26.1772 31.9184 26.2297 31.206 25.5423 30.7384C24.855 30.271 23.4277 30.0484 23.4277 29.3352C23.4277 28.5517 23.9407 27.8497 24.7507 27.376C25.4156 26.9871 26.5456 26.2866 27.2263 26.7521C28.0463 27.3127 29.1589 27.7094 29.873 28.1088C30.6171 28.525 30.9463 28.9977 31.025 29.3352Z" fill="#232124" stroke="#E2E0E4" stroke-linecap="round" stroke-linejoin="round"/>
<path d="M8.59723 28.4276C8.88074 29.0537 7.62832 29.4468 7.03408 29.9027C6.33817 30.4366 5.93022 31.0108 4.79861 31.0108C3.86002 31.0108 3.33876 30.4465 2.67591 30.0629C1.85718 29.5891 1 29.216 1 28.4276C1 27.4997 1.58443 27.2565 2.66482 26.8011C3.2454 26.5563 4.07666 25.754 4.79861 25.8445C6.51465 26.0595 8.08244 27.2908 8.59723 28.4276Z" fill="#232124" stroke="#E2E0E4" stroke-linecap="round" stroke-linejoin="round"/>
<path d="M22.4371 31.9816C22.4371 32.5627 21.5723 32.8008 21.0961 33.2323C20.4031 33.8603 19.8819 34.5648 18.6385 34.5648C17.3365 34.5648 17.3528 34.0448 16.6683 33.3658C16.2499 32.9507 14.8398 32.5229 14.8398 31.9816C14.8398 31.1102 15.4744 30.3395 16.4464 29.8717C17.0657 29.5736 18.6165 29.9576 19.433 29.9576C21.5309 29.9576 22.4371 30.555 22.4371 31.9816Z" fill="#232124" stroke="#E2E0E4" stroke-linecap="round" stroke-linejoin="round"/>
<path d="M13.5327 22.3776C14.6924 23.5474 11.8032 24.9602 9.66975 24.9602C8.87737 24.9602 8.34344 24.3775 7.73243 24.1039C6.69831 23.6409 5.81715 23.2741 5.80676 22.3776C5.79113 21.0282 7.27845 20.8446 9.66975 19.7949C11.3942 19.0379 12.8789 21.718 13.5327 22.3776Z" fill="#232124" stroke="#E2E0E4" stroke-linecap="round" stroke-linejoin="round"/>
<path d="M24.1036 24.672C24.1036 26.0987 23.6211 26.3234 21.5232 26.3234C20.5245 26.3234 19.4569 26.5458 18.7788 26.1172C18.0326 25.6456 18.8369 25.1213 18.8369 24.3739C18.8369 23.6698 17.9799 22.8825 18.6516 22.4165C19.341 21.9383 20.3017 21.6416 21.3643 21.6416C22.2642 21.6416 22.8261 22.4508 23.477 22.8064C24.3435 23.2798 24.1036 23.8573 24.1036 24.672Z" fill="#232124" stroke="#E2E0E4" stroke-linecap="round" stroke-linejoin="round"/>
<path d="M10.5621 26.2404C10.5621 27.667 8.86137 28.8235 6.76346 28.8235C5.80571 28.8235 5.73255 28.1593 5.0644 27.7616C4.26898 27.2881 2.96484 27.0157 2.96484 26.2404C2.96484 25.5564 4.35803 25.4987 4.99624 25.0366C5.68918 24.5349 5.67137 23.6572 6.76346 23.6572C7.69437 23.6572 8.34663 24.3787 9.00723 24.7566C9.83537 25.2305 10.5621 25.4468 10.5621 26.2404Z" fill="#232124" stroke="#E2E0E4" stroke-linecap="round" stroke-linejoin="round"/>
<path d="M31.023 29.3352C31.245 30.2876 30.1273 30.0522 29.7886 31.241C29.6113 31.8636 28.2127 31.9184 27.2244 31.9184C26.1753 31.9184 26.2277 31.206 25.5403 30.7384C24.8531 30.271 23.4258 30.0484 23.4258 29.3352C23.4258 28.5517 23.9387 27.8497 24.7487 27.376C25.4136 26.9871 26.5436 26.2866 27.2244 26.7521C28.0443 27.3127 29.157 27.7094 29.871 28.1088C30.6152 28.525 30.9444 28.9977 31.023 29.3352Z" fill="#232124" stroke="#E2E0E4" stroke-linecap="round" stroke-linejoin="round"/>
<path d="M16.023 31.1015C16.3065 31.7276 15.0541 32.1207 14.4599 32.5765C13.764 33.1104 13.356 33.6846 12.2244 33.6846C11.2858 33.6846 10.7645 33.1203 10.1017 32.7367C9.28296 32.2629 8.42578 31.8898 8.42578 31.1015C8.42578 30.1735 9.01021 29.9304 10.0906 29.4749C10.6712 29.2302 11.5024 28.4279 12.2244 28.5183C13.9404 28.7333 15.5082 29.9646 16.023 31.1015Z" fill="#232124" stroke="#E2E0E4" stroke-linecap="round" stroke-linejoin="round"/>
<path d="M22.4371 31.9816C22.4371 32.5627 21.5723 32.8008 21.0961 33.2323C20.4031 33.8603 19.8819 34.5648 18.6385 34.5648C17.3365 34.5648 17.3528 34.0448 16.6683 33.3658C16.2499 32.9507 14.8398 32.5229 14.8398 31.9816C14.8398 31.1102 15.4744 30.3395 16.4464 29.8717C17.0657 29.5736 18.6165 29.9576 19.433 29.9576C21.5309 29.9576 22.4371 30.555 22.4371 31.9816Z" fill="#232124" stroke="#E2E0E4" stroke-linecap="round" stroke-linejoin="round"/>
<path d="M28.982 26.0685C30.1416 27.2383 27.2524 28.6512 25.119 28.6512C24.3266 28.6512 23.7927 28.0685 23.1816 27.7949C22.1475 27.3318 21.2664 26.9651 21.256 26.0685C21.2403 24.7191 22.7277 24.5356 25.119 23.4858C26.8434 22.7288 28.3282 25.4089 28.982 26.0685Z" fill="#232124" stroke="#E2E0E4" stroke-linecap="round" stroke-linejoin="round"/>
<path d="M39.5528 28.363C39.5528 29.7896 39.0703 30.0143 36.9724 30.0143C35.9737 30.0143 34.9061 30.2367 34.228 29.8082C33.4818 29.3365 34.2861 28.8123 34.2861 28.0648C34.2861 27.3607 33.4291 26.5734 34.1008 26.1074C34.7902 25.6292 35.7509 25.3325 36.8135 25.3325C37.7134 25.3325 38.2753 26.1417 38.9262 26.4973C39.7927 26.9708 39.5528 27.5483 39.5528 28.363Z" fill="#232124" stroke="#E2E0E4" stroke-linecap="round" stroke-linejoin="round"/>
<path d="M32.5738 31.1466C32.5738 32.5733 30.8731 33.7298 28.7752 33.7298C27.8174 33.7298 27.7443 33.0656 27.0761 32.6679C26.2807 32.1944 24.9766 31.922 24.9766 31.1466C24.9766 30.4626 26.3698 30.405 27.008 29.9429C27.7009 29.4411 27.6831 28.5635 28.7752 28.5635C29.7061 28.5635 30.3583 29.2849 31.019 29.6629C31.8471 30.1368 32.5738 30.353 32.5738 31.1466Z" fill="#232124" stroke="#E2E0E4" stroke-linecap="round" stroke-linejoin="round"/>
<path d="M46.4742 33.0262C46.6961 33.9786 45.5785 33.7431 45.2398 34.932C45.0625 35.5545 43.6639 35.6093 42.6756 35.6093C41.6264 35.6093 41.6789 34.8969 40.9915 34.4293C40.3043 33.9619 38.877 33.7394 38.877 33.0262C38.877 32.2427 39.3899 31.5406 40.1999 31.0669C40.8648 30.678 41.9948 29.9775 42.6756 30.443C43.4955 31.0036 44.6081 31.4003 45.3222 31.7997C46.0664 32.2159 46.3955 32.6886 46.4742 33.0262Z" fill="#232124" stroke="#E2E0E4" stroke-linecap="round" stroke-linejoin="round"/>
<path d="M24.0464 32.1186C24.33 32.7447 23.0775 33.1377 22.4833 33.5936C21.7874 34.1275 21.3794 34.7017 20.2478 34.7017C19.3092 34.7017 18.788 34.1374 18.1251 33.7538C17.3064 33.28 16.4492 32.9069 16.4492 32.1186C16.4492 31.1906 17.0336 30.9475 18.114 30.492C18.6946 30.2473 19.5259 29.4449 20.2478 29.5354C21.9639 29.7504 23.5317 30.9817 24.0464 32.1186Z" fill="#232124" stroke="#E2E0E4" stroke-linecap="round" stroke-linejoin="round"/>
<path d="M37.8863 35.6725C37.8863 36.2536 37.0215 36.4917 36.5453 36.9233C35.8523 37.5512 35.3311 38.2557 34.0877 38.2557C32.7857 38.2557 32.802 37.7357 32.1176 37.0567C31.6991 36.6416 30.2891 36.2138 30.2891 35.6725C30.2891 34.8011 30.9236 34.0304 31.8957 33.5626C32.515 33.2645 34.0657 33.6485 34.8822 33.6485C36.9801 33.6485 37.8863 34.2459 37.8863 35.6725Z" fill="#232124" stroke="#E2E0E4" stroke-linecap="round" stroke-linejoin="round"/>
<path d="M33.6441 25.7042C34.8037 26.8741 31.9145 28.2869 29.7811 28.2869C28.9887 28.2869 28.4548 27.7042 27.8438 27.4306C26.8096 26.9675 25.9285 26.6008 25.9181 25.7042C25.9025 24.3548 27.3898 24.1713 29.7811 23.1215C31.5055 22.3645 32.9903 25.0447 33.6441 25.7042Z" fill="#232124" stroke="#E2E0E4" stroke-linecap="round" stroke-linejoin="round"/>
<path d="M44.2149 27.9987C44.2149 29.4253 43.7324 29.65 41.6345 29.65C40.6358 29.65 39.5682 29.8725 38.8901 29.4439C38.1439 28.9722 38.9482 28.448 38.9482 27.7005C38.9482 26.9965 38.0912 26.2091 38.7629 25.7432C39.4523 25.265 40.413 24.9683 41.4756 24.9683C42.3755 24.9683 42.9375 25.7774 43.5883 26.133C44.4548 26.6065 44.2149 27.184 44.2149 27.9987Z" fill="#232124" stroke="#E2E0E4" stroke-linecap="round" stroke-linejoin="round"/>
<path d="M37.2359 30.7824C37.2359 32.209 35.5352 33.3655 33.4373 33.3655C32.4795 33.3655 32.4064 32.7013 31.7382 32.3036C30.9428 31.8301 29.6387 31.5577 29.6387 30.7824C29.6387 30.0984 31.0319 30.0407 31.6701 29.5786C32.363 29.0769 32.3452 28.1992 33.4373 28.1992C34.3682 28.1992 35.0205 28.9207 35.6811 29.2986C36.5092 29.7725 37.2359 29.9888 37.2359 30.7824Z" fill="#232124" stroke="#E2E0E4" stroke-linecap="round" stroke-linejoin="round"/>
<path d="M51.1363 32.6619C51.3582 33.6143 50.2406 33.3789 49.9019 34.5677C49.7246 35.1902 48.326 35.2451 47.3377 35.2451C46.2886 35.2451 46.341 34.5327 45.6536 34.0651C44.9664 33.5976 43.5391 33.3751 43.5391 32.6619C43.5391 31.8784 44.052 31.1764 44.862 30.7026C45.5269 30.3138 46.6569 29.6132 47.3377 30.0787C48.1576 30.6394 49.2703 31.0361 49.9843 31.4355C50.7285 31.8517 51.0576 32.3244 51.1363 32.6619Z" fill="#232124" stroke="#E2E0E4" stroke-linecap="round" stroke-linejoin="round"/>
<path d="M28.7086 31.7543C28.9921 32.3804 27.7397 32.7735 27.1454 33.2294C26.4495 33.7632 26.0416 34.3375 24.9099 34.3375C23.9713 34.3375 23.4501 33.7731 22.7872 33.3895C21.9685 32.9157 21.1113 32.5427 21.1113 31.7543C21.1113 30.8263 21.6958 30.5832 22.7761 30.1278C23.3567 29.883 24.188 29.0807 24.9099 29.1711C26.626 29.3861 28.1938 30.6175 28.7086 31.7543Z" fill="#232124" stroke="#E2E0E4" stroke-linecap="round" stroke-linejoin="round"/>
<path d="M42.5484 35.3083C42.5484 35.8894 41.6836 36.1274 41.2074 36.559C40.5144 37.187 39.9932 37.8914 38.7498 37.8914C37.4478 37.8914 37.4641 37.3714 36.7797 36.6925C36.3613 36.2774 34.9512 35.8495 34.9512 35.3083C34.9512 34.4368 35.5857 33.6662 36.5578 33.1983C37.1771 32.9003 38.7279 33.2842 39.5443 33.2842C41.6422 33.2842 42.5484 33.8816 42.5484 35.3083Z" fill="#232124" stroke="#E2E0E4" stroke-linecap="round" stroke-linejoin="round"/>
<path d="M20.4546 27.0404C21.6143 28.2103 18.7251 29.6231 16.5916 29.6231C15.7992 29.6231 15.2653 29.0404 14.6543 28.7668C13.6202 28.3037 12.739 27.937 12.7286 27.0404C12.713 25.691 14.2003 25.5075 16.5916 24.4577C18.3161 23.7007 19.8008 26.3808 20.4546 27.0404Z" fill="#232124" stroke="#E2E0E4" stroke-linecap="round" stroke-linejoin="round"/>
<path d="M31.0254 29.3349C31.0254 30.7615 30.543 30.9862 28.4451 30.9862C27.4463 30.9862 26.3787 31.2087 25.7007 30.7801C24.9544 30.3084 25.7588 29.7842 25.7588 29.0367C25.7588 28.3327 24.9018 27.5453 25.5735 27.0794C26.2629 26.6011 27.2236 26.3044 28.2862 26.3044C29.186 26.3044 29.748 27.1136 30.3988 27.4692C31.2653 27.9427 31.0254 28.5202 31.0254 29.3349Z" fill="#232124" stroke="#E2E0E4" stroke-linecap="round" stroke-linejoin="round"/>
<path d="M24.0464 32.1186C24.0464 33.5452 22.3457 34.7017 20.2478 34.7017C19.2901 34.7017 19.2169 34.0375 18.5488 33.6398C17.7534 33.1663 16.4492 32.8939 16.4492 32.1186C16.4492 31.4346 17.8424 31.3769 18.4806 30.9148C19.1736 30.413 19.1557 29.5354 20.2478 29.5354C21.1787 29.5354 21.831 30.2568 22.4916 30.6348C23.3197 31.1087 24.0464 31.325 24.0464 32.1186Z" fill="#232124" stroke="#E2E0E4" stroke-linecap="round" stroke-linejoin="round"/>
<path d="M37.9468 33.9981C38.1688 34.9505 37.0511 34.7151 36.7125 35.9039C36.5351 36.5264 35.1366 36.5812 34.1482 36.5812C33.0991 36.5812 33.1516 35.8688 32.4641 35.4012C31.7769 34.9338 30.3496 34.7113 30.3496 33.9981C30.3496 33.2146 30.8626 32.5126 31.6725 32.0388C32.3374 31.65 33.4675 30.9494 34.1482 31.4149C34.9681 31.9756 36.0808 32.3723 36.7949 32.7716C37.539 33.1878 37.8682 33.6606 37.9468 33.9981Z" fill="#232124" stroke="#E2E0E4" stroke-linecap="round" stroke-linejoin="round"/>
<path d="M15.5191 33.0905C15.8026 33.7166 14.5502 34.1097 13.956 34.5655C13.26 35.0994 12.8521 35.6736 11.7205 35.6736C10.7819 35.6736 10.2606 35.1093 9.59778 34.7257C8.77905 34.2519 7.92188 33.8788 7.92188 33.0905C7.92188 32.1625 8.5063 31.9194 9.5867 31.4639C10.1673 31.2192 10.9985 30.4169 11.7205 30.5073C13.4365 30.7223 15.0043 31.9537 15.5191 33.0905Z" fill="#232124" stroke="#E2E0E4" stroke-linecap="round" stroke-linejoin="round"/>
<path d="M29.3589 36.6444C29.3589 37.2255 28.4942 37.4636 28.0179 37.8952C27.325 38.5232 26.8037 39.2276 25.5603 39.2276C24.2584 39.2276 24.2747 38.7076 23.5902 38.0286C23.1718 37.6135 21.7617 37.1857 21.7617 36.6444C21.7617 35.773 22.3963 35.0024 23.3683 34.5345C23.9876 34.2364 25.5384 34.6204 26.3548 34.6204C28.4528 34.6204 29.3589 35.2178 29.3589 36.6444Z" fill="#232124" stroke="#E2E0E4" stroke-linecap="round" stroke-linejoin="round"/>
<path d="M20.4546 27.0404C21.6143 28.2103 18.7251 29.6231 16.5916 29.6231C15.7992 29.6231 15.2653 29.0404 14.6543 28.7668C13.6202 28.3037 12.739 27.937 12.7286 27.0404C12.713 25.691 14.2003 25.5075 16.5916 24.4577C18.3161 23.7007 19.8008 26.3808 20.4546 27.0404Z" fill="#232124" stroke="#E2E0E4" stroke-linecap="round" stroke-linejoin="round"/>
<path d="M31.0254 29.3349C31.0254 30.7615 30.543 30.9862 28.4451 30.9862C27.4463 30.9862 26.3787 31.2087 25.7007 30.7801C24.9544 30.3084 25.7588 29.7842 25.7588 29.0367C25.7588 28.3327 24.9018 27.5453 25.5735 27.0794C26.2629 26.6011 27.2236 26.3044 28.2862 26.3044C29.186 26.3044 29.748 27.1136 30.3988 27.4692C31.2653 27.9427 31.0254 28.5202 31.0254 29.3349Z" fill="#232124" stroke="#E2E0E4" stroke-linecap="round" stroke-linejoin="round"/>
<path d="M17.4839 30.9032C17.4839 32.3299 15.7832 33.4864 13.6853 33.4864C12.7276 33.4864 12.6544 32.8222 11.9863 32.4244C11.1909 31.951 9.88672 31.6786 9.88672 30.9032C9.88672 30.2192 11.2799 30.1616 11.9181 29.6995C12.6111 29.1977 12.5932 28.3201 13.6853 28.3201C14.6162 28.3201 15.2685 29.0415 15.9291 29.4195C16.7572 29.8933 17.4839 30.1096 17.4839 30.9032Z" fill="#232124" stroke="#E2E0E4" stroke-linecap="round" stroke-linejoin="round"/>
<path d="M37.9449 33.9981C38.1668 34.9505 37.0492 34.7151 36.7105 35.9039C36.5332 36.5264 35.1346 36.5812 34.1463 36.5812C33.0971 36.5812 33.1496 35.8688 32.4622 35.4012C31.775 34.9338 30.3477 34.7113 30.3477 33.9981C30.3477 33.2146 30.8606 32.5126 31.6706 32.0388C32.3355 31.65 33.4655 30.9494 34.1463 31.4149C34.9662 31.9756 36.0788 32.3723 36.7929 32.7716C37.5371 33.1878 37.8662 33.6606 37.9449 33.9981Z" fill="#232124" stroke="#E2E0E4" stroke-linecap="round" stroke-linejoin="round"/>
<path d="M22.9449 35.7643C23.2284 36.3904 21.976 36.7835 21.3817 37.2394C20.6858 37.7732 20.2779 38.3475 19.1463 38.3475C18.2077 38.3475 17.6864 37.7832 17.0236 37.3995C16.2048 36.9257 15.3477 36.5527 15.3477 35.7643C15.3477 34.8363 15.9321 34.5932 17.0125 34.1378C17.5931 33.893 18.4243 33.0907 19.1463 33.1811C20.8623 33.3961 22.4301 34.6275 22.9449 35.7643Z" fill="#232124" stroke="#E2E0E4" stroke-linecap="round" stroke-linejoin="round"/>
<path d="M29.3589 36.6444C29.3589 37.2255 28.4942 37.4636 28.0179 37.8952C27.325 38.5232 26.8037 39.2276 25.5603 39.2276C24.2584 39.2276 24.2747 38.7076 23.5902 38.0286C23.1718 37.6135 21.7617 37.1857 21.7617 36.6444C21.7617 35.773 22.3963 35.0024 23.3683 34.5345C23.9876 34.2364 25.5384 34.6204 26.3548 34.6204C28.4528 34.6204 29.3589 35.2178 29.3589 36.6444Z" fill="#232124" stroke="#E2E0E4" stroke-linecap="round" stroke-linejoin="round"/>
</svg>
