<svg width="56" height="56" viewBox="0 0 56 56" fill="none" xmlns="http://www.w3.org/2000/svg">
<path d="M4.13343 39.6688C1.05669 38.5593 2.99208 33.2223 5.80267 31.2343C6.84654 30.496 8.32149 31.0893 9.48871 31.0322C11.4642 30.9355 13.1106 30.8009 14.3115 32.4696C16.1188 34.9812 14.4025 36.7107 12.6422 40.9041C11.3729 43.9281 5.86808 40.2943 4.13343 39.6688Z" fill="#232124" stroke="#F0EEF2" stroke-width="2" stroke-linecap="round" stroke-linejoin="round"/>
<path d="M5.95053 43.644C3.88785 40.7278 4.36367 39.7022 7.84534 37.2396C9.50281 36.0672 10.953 34.3593 12.6979 34.4394C14.6183 34.5276 14.0414 36.5433 15.1221 38.0712C16.1401 39.5104 18.7007 40.1138 18.2596 41.8547C17.8069 43.6415 16.6415 45.3757 14.8781 46.623C13.3847 47.6794 11.2821 46.685 9.68784 46.7221C7.56531 46.7714 7.12844 45.3093 5.95053 43.644Z" fill="#232124" stroke="#F0EEF2" stroke-width="2" stroke-linecap="round" stroke-linejoin="round"/>
<path d="M14.2293 34.7372C12.3403 32.0664 13.0494 28.3167 15.8131 26.3618C17.0749 25.4694 18.0507 26.6447 19.4576 26.7666C21.1324 26.9118 23.2111 26.2065 24.2378 27.658C25.1435 28.9385 23.3845 30.3446 23.1556 31.8044C22.9071 33.3894 24.0927 35.0157 22.654 36.0333C21.4276 36.9008 19.6131 36.158 18.2423 36.066C16.5239 35.9506 15.2802 36.2228 14.2293 34.7372Z" fill="#232124" stroke="#F0EEF2" stroke-width="2" stroke-linecap="round" stroke-linejoin="round"/>
<path d="M11.5955 40.6658C10.042 39.0897 11.8261 38.489 10.6981 35.9479C10.1074 34.6173 11.8773 33.2114 13.1793 32.2905C14.5614 31.3129 15.4356 32.6954 16.9603 32.9302C18.4846 33.1649 20.6596 32.2515 21.6039 33.5867C22.6414 35.0534 22.8952 36.8456 22.4554 38.4872C22.0944 39.8347 21.5334 42.1991 20.0202 41.962C18.1976 41.6764 16.2066 41.9706 14.7371 41.8884C13.2056 41.8026 12.146 41.2244 11.5955 40.6658Z" fill="#232124" stroke="#F0EEF2" stroke-width="2" stroke-linecap="round" stroke-linejoin="round"/>
<path d="M20.1379 31.0191C18.9354 30.1112 20.0648 28.2083 20.244 26.8011C20.4539 25.1533 20.231 23.6982 21.7217 22.6437C22.9582 21.7691 24.3922 22.3399 25.7733 22.4403C27.4793 22.5644 29.1025 22.4641 30.1464 23.9399C31.3751 25.6771 30.9271 26.6768 30.1069 28.5362C29.6662 29.5353 29.6334 31.8119 28.5626 32.3153C26.0172 33.5118 22.3214 32.6676 20.1379 31.0191Z" fill="#232124" stroke="#F0EEF2" stroke-width="2" stroke-linecap="round" stroke-linejoin="round"/>
<path d="M18.4578 38.2396C17.6884 37.1517 18.5124 35.9002 18.5683 34.6486C18.6497 32.8273 18.4035 31.0228 20.0416 29.8642C21.7568 28.651 22.4238 29.6396 24.2246 30.273C25.3254 30.6602 27.7495 30.1471 28.4662 31.1604C29.6201 32.7918 29.8046 34.8257 29.1435 36.6073C28.7224 37.7424 26.171 38.4686 25.0954 39.2294C22.3317 41.1843 20.3468 40.9103 18.4578 38.2396Z" fill="#232124" stroke="#F0EEF2" stroke-width="2" stroke-linecap="round" stroke-linejoin="round"/>
<path d="M40.8932 25.1215C37.8164 24.0121 39.7518 18.6751 42.5624 16.6871C43.6063 15.9488 45.0812 16.5421 46.2485 16.4849C48.224 16.3882 49.8704 16.2537 51.0712 17.9224C52.8786 20.4339 51.1623 22.1634 49.402 26.3568C48.1326 29.3809 42.6278 25.747 40.8932 25.1215Z" fill="#232124" stroke="#F0EEF2" stroke-width="2" stroke-linecap="round" stroke-linejoin="round"/>
<path d="M35.2144 27.6741C33.3253 25.0034 33.6634 24.1332 36.4272 22.1784C37.7429 21.2477 38.8548 19.8365 40.3155 20.007C41.9232 20.1946 41.5577 21.9255 42.5474 23.3248C43.4797 24.6428 45.6513 25.3182 45.3833 26.8163C45.1083 28.354 44.2356 29.8046 42.8357 30.7947C41.6503 31.6332 39.8385 30.6421 38.5102 30.5828C36.7418 30.5039 36.2932 29.1992 35.2144 27.6741Z" fill="#232124" stroke="#F0EEF2" stroke-width="2" stroke-linecap="round" stroke-linejoin="round"/>
<path d="M33.9637 22.6557C32.0747 19.985 32.7838 16.2353 35.5475 14.2804C36.8092 13.388 37.7851 14.5632 39.192 14.6852C40.8668 14.8304 42.9455 14.1251 43.9722 15.5766C44.8778 16.857 43.1188 18.2632 42.89 19.723C42.6415 21.3079 43.8271 22.9343 42.3884 23.9519C41.162 24.8194 39.3475 24.0766 37.9767 23.9845C36.2583 23.8691 35.0145 24.1414 33.9637 22.6557Z" fill="#232124" stroke="#F0EEF2" stroke-width="2" stroke-linecap="round" stroke-linejoin="round"/>
<path d="M27.0662 26.6196C25.5127 25.0434 27.2968 24.4427 26.1688 21.9016C25.5781 20.571 27.348 19.1651 28.65 18.2442C30.0321 17.2666 30.9063 18.6492 32.431 18.884C33.9553 19.1187 36.1303 18.2053 37.0746 19.5404C38.1121 21.0071 38.3659 22.7993 37.9261 24.4409C37.5651 25.7884 37.0041 28.1529 35.4909 27.9157C33.6683 27.6302 31.6773 27.9244 30.2078 27.8421C28.6763 27.7563 27.6167 27.1781 27.0662 26.6196Z" fill="#232124" stroke="#F0EEF2" stroke-width="2" stroke-linecap="round" stroke-linejoin="round"/>
<path d="M40.9153 17.4344C39.7128 16.5265 40.8422 14.6236 41.0214 13.2164C41.2312 11.5686 41.0083 10.1135 42.4991 9.05902C43.7356 8.18443 45.1695 8.75515 46.5507 8.85562C48.2566 8.97971 49.8798 8.87936 50.9237 10.3552C52.1525 12.0924 51.7045 13.0921 50.8843 14.9515C50.4435 15.9506 50.4108 18.2272 49.3399 18.7306C46.7946 19.9271 43.0988 19.0829 40.9153 17.4344Z" fill="#232124" stroke="#F0EEF2" stroke-width="2" stroke-linecap="round" stroke-linejoin="round"/>
<path d="M27.4617 35.0889C26.6923 34.0011 27.5163 32.7496 27.5722 31.498C27.6536 29.6767 27.4074 27.8722 29.0455 26.7136C30.7607 25.5004 31.4277 26.489 33.2285 27.1223C34.3293 27.5095 36.7534 26.9965 37.4701 28.0098C38.624 29.6411 38.8085 31.6751 38.1475 33.4567C37.7263 34.5917 35.1749 35.318 34.0993 36.0788C31.3356 38.0336 29.3507 37.7596 27.4617 35.0889Z" fill="#232124" stroke="#F0EEF2" stroke-width="2" stroke-linecap="round" stroke-linejoin="round"/>
</svg>
