<svg width="56" height="56" viewBox="0 0 56 56" fill="none" xmlns="http://www.w3.org/2000/svg">
<path d="M47.0472 7.85127C48.6872 9.83275 53.875 11.362 51.4879 15.5861C48.92 20.1302 38.0305 29.2578 32.133 34.1391C27.2592 38.173 18.5249 43.8138 14.1507 45.7112C8.31183 48.244 7.31045 46.0971 5.36416 43.7456C3.15087 41.0715 5.7544 39.9851 10.5228 33.8251C13.0888 30.5102 22.694 24.4079 26.3738 20.779C36.9315 10.3673 43.6428 3.73814 47.0472 7.85127Z" fill="#232124" stroke="#E2E0E4" stroke-width="2" stroke-linecap="round" stroke-linejoin="round"/>
<path d="M14.4719 42.6208L14.5402 38.66L19.3453 33.0097L17.6557 28.2729" fill="#232124"/>
<path d="M14.4719 42.6208L14.5402 38.66L19.3453 33.0097L17.6557 28.2729" stroke="#E2E0E4" stroke-width="2"/>
<path d="M24.0254 23.8375L28.9165 25.3668L33.6874 21.6968L38.1732 21.0517L44.6791 16.7824L49.2163 17.2102" fill="#232124"/>
<path d="M24.0254 23.8375L28.9165 25.3668L33.6874 21.6968L38.1732 21.0517L44.6791 16.7824L49.2163 17.2102" stroke="#E2E0E4" stroke-width="2"/>
<path d="M24.1916 39.8749L24.5165 33.1919L28.9163 25.3672" fill="#232124"/>
<path d="M24.1916 39.8749L24.5165 33.1919L28.9163 25.3671" stroke="#E2E0E4" stroke-width="2"/>
<path d="M38.1735 21.0525L38.8523 15.4709L41.3918 12.8113L47.0473 7.85146" fill="#232124"/>
<path d="M38.1735 21.0525L38.8523 15.4709L41.3918 12.8113L47.0473 7.85146" stroke="#E2E0E4" stroke-width="2"/>
<path d="M14.5412 38.6603L8.23495 40.8122L5.18164 40.8295" fill="#232124"/>
<path d="M14.5412 38.6603L8.23495 40.8122L5.18164 40.8295" stroke="#E2E0E4" stroke-width="2"/>
</svg>
