<svg width="40" height="40" viewBox="0 0 40 40" fill="none" xmlns="http://www.w3.org/2000/svg">
<ellipse cx="20.0037" cy="20" rx="19.9962" ry="20" fill="#E2E0E4"/>
<path d="M15.9019 12.9696L14.4628 11.5388L13.3354 12.6659L14.7666 14.0967L15.9019 12.9696ZM13.6952 17.4939H11.2966V19.0926H13.6952V17.4939ZM20.891 9.54048H19.2919V11.8985H20.891V9.54048ZM26.8475 12.6659L25.7201 11.5388L24.289 12.9696L25.4163 14.0967L26.8475 12.6659ZM26.4877 17.4939V19.0926H28.8863V17.4939H26.4877ZM20.0914 13.4972C17.445 13.4972 15.2943 15.6474 15.2943 18.2932L20.0914 19.0926L24.8886 18.2932C24.8886 15.6474 22.7379 13.4972 20.0914 13.4972Z" fill="#213972"/>
<path fill-rule="evenodd" clip-rule="evenodd" d="M40 21.3571L0.00764278 21.5317L0 19.7812L39.9924 19.6065L40 21.3571Z" fill="#213972"/>
</svg>
