<svg width="40" height="40" viewBox="0 0 40 40" fill="none" xmlns="http://www.w3.org/2000/svg">
<ellipse cx="20.0037" cy="20" rx="19.9962" ry="20" fill="#E2E0E4"/>
<path d="M15.8143 4.567L14.3751 3.13619L13.2478 4.26325L14.6789 5.69407L15.8143 4.567ZM13.6076 9.09125H11.209V10.6899H13.6076V9.09125ZM20.8033 1.13785H19.2043V3.49589H20.8033V1.13785ZM26.7598 4.26325L25.6325 3.13619L24.2013 4.567L25.3287 5.69407L26.7598 4.26325ZM24.1933 15.2142L25.6245 16.653L26.7518 15.5259L25.3127 14.0951L24.1933 15.2142ZM26.4 9.09125V10.6899H28.7986V9.09125H26.4ZM20.0038 5.09456C17.3574 5.09456 15.2066 7.24478 15.2066 9.89058C15.2066 12.5364 17.3574 14.6866 20.0038 14.6866C22.6502 14.6866 24.801 12.5364 24.801 9.89058C24.801 7.24478 22.6502 5.09456 20.0038 5.09456ZM19.2043 18.6433H20.8033V16.2853H19.2043V18.6433ZM13.2478 15.5179L14.3751 16.645L15.8063 15.2062L14.6789 14.0791L13.2478 15.5179Z" fill="#213972"/>
<path fill-rule="evenodd" clip-rule="evenodd" d="M40 21.3571L0.00764278 21.5317L0 19.7812L39.9924 19.6065L40 21.3571Z" fill="#213972"/>
</svg>
