<svg width="40" height="40" viewBox="0 0 40 40" fill="none" xmlns="http://www.w3.org/2000/svg">
<path d="M20 40C31.0457 40 40 31.0457 40 20C40 8.9543 31.0457 0 20 0C8.9543 0 0 8.9543 0 20C0 31.0457 8.9543 40 20 40Z" fill="#F0EEF2"/>
<path d="M19.8035 29.7634C22.095 29.7634 23.9525 27.8621 23.9525 25.5168C23.9525 23.1714 22.095 21.2701 19.8035 21.2701C17.5121 21.2701 15.6545 23.1714 15.6545 25.5168C15.6545 27.8621 17.5121 29.7634 19.8035 29.7634Z" fill="#213972"/>
<path d="M25.0064 30.5688H14.4008C14.081 30.5688 13.8218 30.828 13.8218 31.1478V36.3399C13.8218 36.6596 14.081 36.9189 14.4008 36.9189H25.0064C25.3262 36.9189 25.5854 36.6596 25.5854 36.3399V31.1478C25.5854 30.828 25.3262 30.5688 25.0064 30.5688Z" fill="#213972"/>
<path d="M17.5272 32.6289L12.2447 25.5464C11.7613 24.8983 10.844 24.7647 10.1958 25.2481L10.0676 25.3438C9.41941 25.8272 9.28587 26.7445 9.76929 27.3927L15.0518 34.4752C15.5352 35.1234 16.4525 35.2569 17.1007 34.7735L17.2289 34.6778C17.8771 34.1944 18.0106 33.2771 17.5272 32.6289Z" fill="#213972"/>
<path d="M11.0376 26.6847L16.9918 20.6026C17.5366 20.046 17.5321 19.1483 16.9817 18.5973L16.8728 18.4882C16.3224 17.9373 15.4346 17.9417 14.8898 18.4982L8.93557 24.5803C8.39077 25.1369 8.3953 26.0347 8.94569 26.5856L9.05461 26.6947C9.60501 27.2456 10.4928 27.2412 11.0376 26.6847Z" fill="#213972"/>
<path d="M22.4731 32.2623L27.7556 25.1797C28.239 24.5316 29.1563 24.3981 29.8044 24.8815L29.9327 24.9772C30.5808 25.4606 30.7144 26.3779 30.231 27.026L24.9485 34.1086C24.465 34.7567 23.5477 34.8902 22.8996 34.4068L22.7713 34.3112C22.1232 33.8277 21.9896 32.9104 22.4731 32.2623Z" fill="#213972"/>
<path d="M28.9626 26.318L23.0084 20.2359C22.4636 19.6794 22.4682 18.7816 23.0185 18.2306L23.1275 18.1216C23.6779 17.5706 24.5657 17.5751 25.1105 18.1316L31.0647 24.2137C31.6095 24.7702 31.6049 25.668 31.0546 26.219L30.9456 26.328C30.3952 26.879 29.5074 26.8745 28.9626 26.318Z" fill="#213972"/>
<path d="M16.4073 10.2524C15.3822 10.2473 14.5048 10.9865 14.3358 11.9976C14.3279 12.062 14.3784 12.1186 14.4433 12.1181H18.3727C18.4376 12.1186 18.4881 12.062 18.4803 11.9976C18.3103 10.9865 17.4326 10.2475 16.4073 10.2524ZM18.3714 12.5326H14.4433C14.3784 12.5321 14.3279 12.5887 14.3358 12.6531C14.5049 13.6641 15.3823 14.4032 16.4073 14.3982C17.4323 14.4031 18.3096 13.664 18.4787 12.653C18.4865 12.5888 18.4361 12.5322 18.3714 12.5326Z" fill="#213972"/>
<path d="M20.488 12.6484L21.4171 13.5792C21.4419 13.6042 21.4559 13.6381 21.4559 13.6734C21.4559 13.7087 21.4419 13.7426 21.4171 13.7677L21.2286 13.9561C21.2035 13.981 21.1697 13.9949 21.1344 13.9949C21.0991 13.9949 21.0652 13.981 21.0401 13.9561L20.111 13.0254L19.3554 13.7807L20.2861 14.7114C20.311 14.7365 20.3249 14.7704 20.3249 14.8057C20.3249 14.841 20.311 14.8748 20.2861 14.8999L20.0977 15.0884C20.0726 15.1132 20.0387 15.1272 20.0034 15.1272C19.9681 15.1272 19.9342 15.1132 19.9092 15.0884L18.9784 14.1563L18.5381 14.5967C18.3963 14.738 18.2882 14.9094 18.2218 15.0983C18.1554 15.2871 18.1324 15.4885 18.1544 15.6874L18.2729 16.7483L17.1652 17.856C17.1404 17.8811 17.1265 17.915 17.1265 17.9503C17.1265 17.9856 17.1404 18.0194 17.1652 18.0445L17.3537 18.233C17.3788 18.2578 17.4127 18.2718 17.448 18.2718C17.4833 18.2718 17.5171 18.2578 17.5422 18.233L18.6482 17.1271L19.709 17.2455C19.908 17.268 20.1095 17.2451 20.2984 17.1787C20.4874 17.1122 20.6588 17.0039 20.7999 16.8619L23.8341 13.8277L21.5707 11.5643L20.488 12.6484ZM25.6289 11.092L24.3078 9.77104C24.2827 9.74619 24.2488 9.73225 24.2135 9.73225C24.1782 9.73225 24.1444 9.74619 24.1193 9.77104L23.9308 9.95959C23.906 9.98466 23.892 10.0185 23.892 10.0538C23.892 10.0891 23.906 10.123 23.9308 10.1481L24.4029 10.6201L23.6473 11.3757L22.7032 10.4316L22.4196 10.1481C22.3945 10.1232 22.3606 10.1093 22.3253 10.1093C22.29 10.1093 22.2562 10.1232 22.2311 10.1481L21.6656 10.7135C21.6408 10.7386 21.6269 10.7724 21.6269 10.8077C21.6269 10.843 21.6408 10.8769 21.6656 10.902L21.9492 11.1855L24.2126 13.4524L24.4961 13.7359C24.5212 13.7607 24.5551 13.7747 24.5904 13.7747C24.6257 13.7747 24.6595 13.7607 24.6846 13.7359L25.25 13.1687C25.2749 13.1437 25.2888 13.1098 25.2888 13.0745C25.2888 13.0392 25.2749 13.0053 25.25 12.9803L24.0242 11.7544L24.7799 10.9988L25.2519 11.4708C25.277 11.4956 25.3108 11.5096 25.3461 11.5096C25.3814 11.5096 25.4153 11.4956 25.4404 11.4708L25.6289 11.2823C25.6537 11.2569 25.6676 11.2228 25.6676 11.1872C25.6676 11.1517 25.6537 11.1176 25.6289 11.0922L25.6289 11.092Z" fill="#213972"/>
<path d="M23.1196 6.31267C23.5243 5.41319 23.1383 4.35506 22.2495 3.92743C21.3606 3.49981 20.293 3.85855 19.8427 4.73611L18.1818 7.98106C17.7231 8.87713 18.0777 9.97535 18.9738 10.434C19.8699 10.8927 20.9681 10.5381 21.4267 9.64198C22.3387 7.86122 23.1196 6.31267 23.1196 6.31267ZM21.33 7.54496L19.9394 6.83314L20.7698 5.21067C21.2444 4.28355 22.635 4.99536 22.1605 5.92248L21.33 7.54496Z" fill="#213972"/>
</svg>
