<svg width="68" height="68" viewBox="0 0 68 68" fill="none" xmlns="http://www.w3.org/2000/svg">
<circle cx="34" cy="34" r="34" fill="#213972"/>
<path d="M22.4919 30.2425C19.6963 30.2287 16.987 31.2103 14.8489 33.0115C12.7109 34.8128 11.2836 37.3161 10.8226 40.0735C10.8121 40.159 10.8201 40.2457 10.8458 40.3279C10.8715 40.4101 10.9145 40.4858 10.9718 40.55C11.0292 40.6143 11.0996 40.6656 11.1783 40.7005C11.257 40.7353 11.3423 40.753 11.4284 40.7523H33.5632C33.6493 40.753 33.7346 40.7353 33.8133 40.7005C33.892 40.6656 33.9624 40.6143 34.0197 40.55C34.0771 40.4858 34.12 40.4101 34.1458 40.3279C34.1715 40.2457 34.1794 40.159 34.169 40.0735C33.7056 37.3158 32.2766 34.8128 30.1374 33.0118C27.9982 31.2108 25.2883 30.2292 22.4919 30.2425ZM33.5558 43.0871H11.428C11.3419 43.0865 11.2567 43.1042 11.178 43.1391C11.0993 43.174 11.029 43.2253 10.9717 43.2896C10.9144 43.3538 10.8715 43.4295 10.8458 43.5117C10.82 43.5938 10.8121 43.6805 10.8226 43.766C11.2838 46.5232 12.7111 49.0264 14.8491 50.8275C16.9872 52.6286 19.6964 53.61 22.4919 53.5962C25.2873 53.6097 27.9963 52.6281 30.1341 50.827C32.2719 49.0258 33.699 46.5227 34.1601 43.7656C34.1705 43.6803 34.1626 43.5937 34.1369 43.5117C34.1112 43.4297 34.0684 43.3541 34.0112 43.2899C33.954 43.2257 33.8839 43.1744 33.8054 43.1395C33.7268 43.1045 33.6418 43.0867 33.5558 43.0871ZM54.1216 19.631C52.1558 17.6706 49.5551 16.476 46.7872 16.262C44.0193 16.048 41.2659 16.8286 39.0221 18.4634C38.9541 18.5149 38.898 18.5805 38.8575 18.6556C38.8171 18.7307 38.7933 18.8137 38.7878 18.8988C38.7822 18.984 38.7951 19.0693 38.8254 19.149C38.8558 19.2288 38.903 19.301 38.9638 19.3609L54.3847 34.7888C54.4445 34.8497 54.5168 34.897 54.5965 34.9274C54.6763 34.9579 54.7616 34.9708 54.8468 34.9652C54.932 34.9597 55.015 34.9359 55.0901 34.8953C55.1653 34.8548 55.2308 34.7986 55.2822 34.7305C56.92 32.4884 57.7033 29.7351 57.4908 26.9667C57.2782 24.1983 56.084 21.5968 54.1231 19.631H54.1216ZM37.307 21.0258C37.2472 20.9649 37.175 20.9176 37.0952 20.8872C37.0155 20.8567 36.9301 20.8438 36.8449 20.8494C36.7597 20.8549 36.6767 20.8787 36.6016 20.9192C36.5265 20.9598 36.461 21.016 36.4095 21.0841C34.7685 23.3251 33.9835 26.0793 34.1963 28.8487C34.409 31.6181 35.6056 34.22 37.5697 36.1841C39.5337 38.1481 42.1356 39.3447 44.905 39.5575C47.6744 39.7702 50.4286 38.9852 52.6696 37.3442C52.7376 37.2927 52.7938 37.2272 52.8342 37.152C52.8746 37.0769 52.8984 36.9939 52.904 36.9088C52.9095 36.8237 52.8966 36.7383 52.8663 36.6586C52.8359 36.5789 52.7887 36.5066 52.728 36.4467L37.307 21.0258Z" fill="#4FE570"/>
</svg>
