<svg width="40" height="40" viewBox="0 0 40 40" fill="none" xmlns="http://www.w3.org/2000/svg">
<g id="medk/tabl_40px">
<circle id="Ellipse 7" cx="20" cy="20" r="20" fill="#2D1553"/>
<path id="FontAwsome (tablets)" d="M13.2302 17.7896C11.5857 17.7815 9.99203 18.3589 8.73435 19.4185C7.47666 20.478 6.6371 21.9506 6.36591 23.5726C6.35977 23.6229 6.36442 23.6739 6.37956 23.7222C6.3947 23.7706 6.41998 23.8151 6.45371 23.8529C6.48743 23.8907 6.52884 23.9209 6.57515 23.9414C6.62146 23.9619 6.67162 23.9723 6.72227 23.9719H19.7427C19.7934 23.9723 19.8435 23.9619 19.8899 23.9414C19.9362 23.9209 19.9776 23.8907 20.0113 23.8529C20.045 23.8151 20.0703 23.7706 20.0854 23.7222C20.1006 23.6739 20.1052 23.6229 20.0991 23.5726C19.8265 21.9504 18.9859 20.4781 17.7276 19.4186C16.4692 18.3592 14.8751 17.7818 13.2302 17.7896ZM19.7384 25.3453H6.72205C6.67141 25.345 6.62128 25.3554 6.57499 25.3759C6.52871 25.3965 6.48733 25.4266 6.45363 25.4644C6.41993 25.5022 6.39467 25.5467 6.37954 25.5951C6.36442 25.6434 6.35977 25.6944 6.36591 25.7446C6.63719 27.3666 7.4768 28.839 8.73448 29.8985C9.99215 30.9579 11.5858 31.5353 13.2302 31.5271C14.8746 31.5351 16.4681 30.9577 17.7256 29.8982C18.9832 28.8387 19.8226 27.3663 20.0939 25.7444C20.1 25.6942 20.0953 25.6433 20.0802 25.5951C20.0651 25.5468 20.0399 25.5023 20.0063 25.4646C19.9726 25.4268 19.9314 25.3967 19.8852 25.3761C19.839 25.3555 19.789 25.3451 19.7384 25.3453ZM31.8359 11.5476C30.6796 10.3945 29.1498 9.69174 27.5216 9.56583C25.8934 9.43993 24.2737 9.89911 22.9539 10.8608C22.9139 10.8911 22.8808 10.9296 22.8571 10.9738C22.8333 11.018 22.8193 11.0668 22.816 11.1169C22.8128 11.167 22.8203 11.2172 22.8382 11.2641C22.856 11.311 22.8838 11.3535 22.9195 11.3887L31.9907 20.464C32.0259 20.4998 32.0684 20.5276 32.1153 20.5455C32.1622 20.5634 32.2124 20.571 32.2625 20.5677C32.3126 20.5645 32.3614 20.5505 32.4056 20.5266C32.4498 20.5028 32.4884 20.4697 32.5186 20.4296C33.4821 19.1108 33.9428 17.4912 33.8178 15.8627C33.6928 14.2342 32.9903 12.704 31.8368 11.5476H31.8359ZM21.945 12.3681C21.9098 12.3322 21.8673 12.3044 21.8204 12.2865C21.7735 12.2686 21.7233 12.261 21.6732 12.2643C21.6231 12.2675 21.5742 12.2816 21.53 12.3054C21.4858 12.3292 21.4473 12.3623 21.417 12.4024C20.4518 13.7206 19.99 15.3407 20.1151 16.9698C20.2403 18.5989 20.9442 20.1294 22.0995 21.2847C23.2548 22.44 24.7853 23.1439 26.4144 23.2691C28.0435 23.3942 29.6636 22.9324 30.9818 21.9671C31.0218 21.9368 31.0548 21.8983 31.0786 21.8541C31.1024 21.8099 31.1164 21.7611 31.1197 21.711C31.1229 21.6609 31.1154 21.6107 31.0975 21.5638C31.0796 21.5169 31.0519 21.4744 31.0161 21.4392L21.945 12.3681Z" fill="#FFD42A"/>
</g>
</svg>
